<svg xmlns="http://www.w3.org/2000/svg" width="24" height="24" fill="none" viewBox="0 0 24 24"><path fill="#000" d="M14 1.001a3.4 3.4 0 0 1 2.411.998l3.586 3.586.116.121A3.4 3.4 0 0 1 21 8v12a3 3 0 0 1-3 3H6a3 3 0 0 1-3-3V4a3 3 0 0 1 3-3zm-3.375 10.718a1 1 0 0 0-1.406.156l-2 2.5a1 1 0 0 0 0 1.25l2 2.5a1.001 1.001 0 0 0 1.562-1.25L9.281 15l1.5-1.875a1 1 0 0 0-.156-1.406m4.156.156a1.001 1.001 0 0 0-1.562 1.25l1.5 1.875-1.5 1.875a1.001 1.001 0 0 0 1.562 1.25l2-2.5a1 1 0 0 0 0-1.25zM14.5 6.5a1 1 0 0 0 1 1h4l-5-5z"/></svg>